<svg width="107" height="57" viewBox="0 0 107 57" fill="none" xmlns="http://www.w3.org/2000/svg">
<path fill-rule="evenodd" clip-rule="evenodd" d="M55.3576 8.61237C52.4598 5.76638 47.7615 5.76638 44.8636 8.61237L7.50824 45.2995C6.29174 46.4943 6.29175 48.4313 7.50824 49.6261C8.72475 50.8208 10.6971 50.8208 11.9136 49.6261L45.4466 16.6929C48.0225 14.1631 52.1988 14.1631 54.7746 16.6929L87.8954 49.2212C89.1833 50.4861 89.1833 52.5369 87.8954 53.8018C86.6075 55.0666 84.5194 55.0666 83.2314 53.8018L50.1106 21.2734L16.5776 54.2066C12.7852 57.9311 6.63661 57.9311 2.84426 54.2066C-0.948086 50.4821 -0.948087 44.4435 2.84426 40.719L40.1996 4.03182C45.6733 -1.34394 54.5479 -1.34394 60.0216 4.03182L57.6896 6.3221L60.0216 4.03182L106.034 49.2212C107.322 50.4861 107.322 52.5369 106.034 53.8018C104.746 55.0666 102.658 55.0666 101.37 53.8018L55.3576 8.61237ZM49.9692 32.2168C51.2571 33.4816 51.2571 35.5324 49.9692 36.7973L33.8917 52.5872C32.6038 53.852 30.5157 53.852 29.2277 52.5872C27.9398 51.3223 27.9398 49.2715 29.2277 48.0066L45.3052 32.2168C46.5931 30.9519 48.6812 30.9519 49.9692 32.2168ZM54.8348 40.2679C56.111 39.0646 58.1265 39.0646 59.4027 40.2679L69.7087 49.9847C71.0226 51.2235 71.0652 53.2739 69.8039 54.5643C68.5425 55.8547 66.4548 55.8966 65.1409 54.6577L57.1187 47.0943L49.0966 54.6577C47.7827 55.8966 45.695 55.8547 44.4336 54.5643C43.1722 53.2739 43.2148 51.2235 44.5288 49.9847L54.8348 40.2679Z" fill="#EF0000"/>
</svg>